<?xml version="1.0" encoding="utf-8"?>
<!-- Generator: Adobe Illustrator 18.1.1, SVG Export Plug-In . SVG Version: 6.00 Build 0)  -->
<!DOCTYPE svg PUBLIC "-//W3C//DTD SVG 1.1//EN" "http://www.w3.org/Graphics/SVG/1.1/DTD/svg11.dtd">
<svg version="1.1" xmlns="http://www.w3.org/2000/svg" xmlns:xlink="http://www.w3.org/1999/xlink" x="0px" y="0px"
	 viewBox="0 0 150 150" enable-background="new 0 0 150 150" xml:space="preserve">
<g id="guides">
</g>
<g id="artowrk">
	<g>
		<g>
			<g>
				<rect x="95.3" y="31.1" fill="#919BA2" width="1.8" height="87.9"/>
			</g>
		</g>
		<g>
			<g>
				<g opacity="0.5">
					<path fill="#919BA2" d="M76.4,78.5c-0.2,0-0.4-0.2-0.4-0.4v-0.9c0-0.2,0.2-0.4,0.4-0.4c0.2,0,0.4,0.2,0.4,0.4v0.9
						C76.9,78.3,76.7,78.5,76.4,78.5z"/>
				</g>
				<g opacity="0.25">
					<polygon fill="#919BA2" points="79.5,75.4 80,78.1 76.9,81.2 76.9,76.8 					"/>
				</g>
				<path fill="#919BA2" d="M87,80.9l-5.4-1.7L80,77.5L79.6,76c1.6-1.7,2.5-4.7,2.5-7.7c0-4.9-2.3-7.3-6.2-7.3
					c-3.9,0-6.2,2.5-6.2,7.3c0,3,0.9,6,2.5,7.7L72,77.5l-1.7,1.7L65,80.9c-1.8,0.6-3.1,2.3-3.1,4.2v4h11.4h5.3h11.4v-4
					C90.1,83.1,88.8,81.4,87,80.9z M80,78.7l1.2,1.2L79,82.8l-1.8-1.2L80,78.7z M74.6,82.7l1-0.7h0.6l1,0.7L77,83.8h-2L74.6,82.7z
					 M73.5,78.9l0.4-1.8c0.6,0.3,1.3,0.5,2.1,0.5s1.5-0.2,2.1-0.5l0.4,1.8l-2.2,2.2h-0.5L73.5,78.9z M75,84.7h2l0.4,2.6h-2.9
					L75,84.7z M71.6,68.3c0-5.6,3.3-5.6,4.4-5.6s4.4,0,4.4,5.6c0,4.9-2.3,7.6-4.4,7.6C73.9,75.9,71.6,73.2,71.6,68.3z M72,78.7
					l2.8,2.8L73,82.8l-2.2-2.9L72,78.7z M63.7,87.3V85c0-1.2,0.7-2.2,1.8-2.5l5-1.6l2.3,3l1.1-0.7l0.3,0.9l-0.5,3.2H63.7z
					 M88.3,87.3h-10l-0.5-3.2l0.3-0.9l1.1,0.7l2.3-3l5,1.6c1.1,0.3,1.8,1.4,1.8,2.5V87.3z"/>
				<g>
					<polygon opacity="0.5" fill="#919BA2" points="74.4,88.2 75,84.7 77,84.7 77.6,88.2 					"/>
					<polygon opacity="0.5" fill="#919BA2" points="77,83.8 75,83.8 74.6,82.7 75.7,82 76.3,82 77.4,82.7 					"/>
				</g>
				<path opacity="0.5" fill="#919BA2" d="M79.5,68.3c0,4.6-2,7.2-4,7.6c0.1,0,0.3,0,0.4,0c2.1,0,4.4-2.7,4.4-7.6
					c0-5.6-3.3-5.6-4.4-5.6c-0.1,0-0.3,0-0.4,0C76.9,62.8,79.5,63.3,79.5,68.3z"/>
				<path opacity="0.25" fill="#919BA2" d="M76.9,81.2l1.6-2.2l-0.4-1.8c-0.3,0.1-0.5,0.2-0.8,0.3l0.3,1.5L76.9,81.2z"/>
				<polygon opacity="0.5" fill="#919BA2" points="76.7,88.2 77.6,88.2 77,84.7 76.1,84.7 				"/>
				<polygon opacity="0.5" fill="#919BA2" points="80,78.7 79.5,79.2 80.8,80.4 81.1,79.9 				"/>
				<polygon opacity="0.5" fill="#919BA2" points="76.1,83.8 77,83.8 77.4,82.7 76.3,82 75.7,82 75.6,82.1 76.5,82.7 				"/>
				<polygon opacity="0.25" fill="#919BA2" points="74,83.7 73.9,83.2 73.4,83.6 73.7,83.9 				"/>
				<path opacity="0.25" fill="#919BA2" d="M86.5,82.5l-5-1.6l-2,2.6l0.6,0.4l1.9-2.6l3.6,1.1c1.1,0.3,1.8,1.4,1.8,2.5v2.3h0.9V85
					C88.3,83.9,87.6,82.9,86.5,82.5z"/>
				<polygon opacity="0.25" fill="#919BA2" points="78.8,83.7 78.1,83.2 77.8,84.1 78.3,87.3 79.2,87.3 78.7,84.1 				"/>
			</g>
			<g opacity="0.12">
				<rect x="75.1" y="45.1" fill="#919BA2" width="16.7" height="13.2"/>
			</g>
			<g opacity="0.12">
				<rect x="83" y="45.1" fill="#919BA2" width="8.8" height="13.2"/>
			</g>
			<g opacity="0.12">
				<rect x="75.1" y="91.7" fill="#919BA2" width="16.7" height="15.8"/>
			</g>
			<g opacity="0.12">
				<rect x="62.8" y="91.7" fill="#919BA2" width="2.6" height="15.8"/>
			</g>
			<g opacity="0.12">
				<rect x="67.2" y="91.7" fill="#919BA2" width="4.4" height="15.8"/>
			</g>
			<g opacity="0.12">
				<rect x="62.8" y="45.1" fill="#919BA2" width="2.6" height="13.2"/>
			</g>
			<g opacity="0.12">
				<rect x="67.2" y="45.1" fill="#919BA2" width="4.4" height="13.2"/>
			</g>
			<g opacity="0.12">
				<polygon fill="#919BA2" points="60.2,91.7 60.2,93.5 83,93.5 83,104.9 60.2,104.9 60.2,107.5 91.8,107.5 91.8,91.7 				"/>
			</g>
			<g>
				<g>
					<g>
						<rect x="66.3" y="101.4" fill="#919BA2" width="1.8" height="0.9"/>
					</g>
				</g>
				<g>
					<g>
						<rect x="83.9" y="101.4" fill="#919BA2" width="1.8" height="0.9"/>
					</g>
				</g>
				<g>
					<g>
						<rect x="66.3" y="97.8" fill="#919BA2" width="1.8" height="0.9"/>
					</g>
				</g>
				<g>
					<g>
						<rect x="69.8" y="97.8" fill="#919BA2" width="1.8" height="0.9"/>
					</g>
				</g>
				<g>
					<g>
						<rect x="69.8" y="101.4" fill="#919BA2" width="1.8" height="0.9"/>
					</g>
				</g>
				<g>
					<g>
						<rect x="71.6" y="99.6" fill="#919BA2" width="1.8" height="0.9"/>
					</g>
				</g>
				<g>
					<g>
						<rect x="73.4" y="97.8" fill="#919BA2" width="1.8" height="0.9"/>
					</g>
				</g>
				<g>
					<g>
						<rect x="73.4" y="101.4" fill="#919BA2" width="1.8" height="0.9"/>
					</g>
				</g>
				<g>
					<g>
						<rect x="75.1" y="99.6" fill="#919BA2" width="1.8" height="0.9"/>
					</g>
				</g>
				<g>
					<g>
						<rect x="76.9" y="97.8" fill="#919BA2" width="1.8" height="0.9"/>
					</g>
				</g>
				<g>
					<g>
						<rect x="76.9" y="101.4" fill="#919BA2" width="1.8" height="0.9"/>
					</g>
				</g>
				<g>
					<g>
						<rect x="80.4" y="101.4" fill="#919BA2" width="1.8" height="0.9"/>
					</g>
				</g>
				<g>
					<g>
						<rect x="83.9" y="97.8" fill="#919BA2" width="1.8" height="0.9"/>
					</g>
				</g>
				<g>
					<g>
						<rect x="68.1" y="99.6" fill="#919BA2" width="1.8" height="0.9"/>
					</g>
				</g>
				<g>
					<g>
						<rect x="64.6" y="99.6" fill="#919BA2" width="1.8" height="0.9"/>
					</g>
				</g>
				<g>
					<g>
						<rect x="82.2" y="99.6" fill="#919BA2" width="1.8" height="0.9"/>
					</g>
				</g>
				<g>
					<g>
						<rect x="78.6" y="99.6" fill="#919BA2" width="1.8" height="0.9"/>
					</g>
				</g>
				<g>
					<g>
						<rect x="80.4" y="97.8" fill="#919BA2" width="1.8" height="0.9"/>
					</g>
				</g>
				<g>
					<g>
						<rect x="85.7" y="99.6" fill="#919BA2" width="1.8" height="0.9"/>
					</g>
				</g>
			</g>
			<path fill="#919BA2" d="M59.3,41.6v66.8h33.4V41.6H59.3z M61.1,59.2h29.9v31.6H61.1V59.2z M90.9,106.6H61.1V92.6h29.9V106.6z
				 M61.1,57.4V43.4h29.9v14.1H61.1z"/>
		</g>
		<g>
			<g>
				<rect x="54.9" y="31.1" fill="#919BA2" width="1.8" height="87.9"/>
			</g>
		</g>
		<g>
			<g>
				<g opacity="0.5">
					<path fill="#919BA2" d="M35.1,78.5c-0.2,0-0.4-0.2-0.4-0.4v-0.9c0-0.2,0.2-0.4,0.4-0.4c0.2,0,0.4,0.2,0.4,0.4v0.9
						C35.6,78.3,35.4,78.5,35.1,78.5z"/>
				</g>
				<g opacity="0.25">
					<polygon fill="#919BA2" points="38.2,75.4 38.7,78.1 35.6,81.2 35.6,76.8 					"/>
				</g>
				<path fill="#919BA2" d="M45.7,80.9l-5.4-1.7l-1.6-1.6L38.3,76c1.6-1.7,2.5-4.7,2.5-7.7c0-4.9-2.3-7.3-6.2-7.3s-6.2,2.5-6.2,7.3
					c0,3,0.9,6,2.5,7.7l-0.3,1.5L29,79.2l-5.3,1.7c-1.8,0.6-3.1,2.3-3.1,4.2v4h11.4h5.3h11.4v-4C48.8,83.1,47.5,81.4,45.7,80.9z
					 M38.6,78.7l1.2,1.2l-2.2,2.8l-1.8-1.2L38.6,78.7z M33.3,82.7l1-0.7H35l1,0.7l-0.4,1.1h-2L33.3,82.7z M32.2,78.9l0.4-1.8
					c0.6,0.3,1.3,0.5,2.1,0.5s1.5-0.2,2.1-0.5l0.4,1.8L35,81.2h-0.5L32.2,78.9z M33.7,84.7h2l0.4,2.6h-2.9L33.7,84.7z M30.3,68.3
					c0-5.6,3.3-5.6,4.4-5.6s4.4,0,4.4,5.6c0,4.9-2.3,7.6-4.4,7.6S30.3,73.2,30.3,68.3z M30.7,78.7l2.8,2.8l-1.8,1.2l-2.2-2.9
					L30.7,78.7z M22.4,87.3V85c0-1.2,0.7-2.2,1.8-2.5l5-1.6l2.3,3l1.1-0.7l0.3,0.9l-0.5,3.2H22.4z M47,87.3H37l-0.5-3.2l0.3-0.9
					l1.1,0.7l2.3-3l5,1.6c1.1,0.3,1.8,1.4,1.8,2.5V87.3z"/>
				<g>
					<polygon opacity="0.5" fill="#919BA2" points="33.1,88.2 33.7,84.7 35.7,84.7 36.3,88.2 					"/>
					<polygon opacity="0.5" fill="#919BA2" points="35.7,83.8 33.7,83.8 33.3,82.7 34.4,82 35,82 36.1,82.7 					"/>
				</g>
				<path opacity="0.5" fill="#919BA2" d="M38.2,68.3c0,4.6-2,7.2-4,7.6c0.1,0,0.3,0,0.4,0c2.1,0,4.4-2.7,4.4-7.6
					c0-5.6-3.3-5.6-4.4-5.6c-0.1,0-0.3,0-0.4,0C35.6,62.8,38.2,63.3,38.2,68.3z"/>
				<path opacity="0.25" fill="#919BA2" d="M35.6,81.2l1.6-2.2l-0.4-1.8c-0.3,0.1-0.5,0.2-0.8,0.3l0.3,1.5L35.6,81.2z"/>
				<polygon opacity="0.5" fill="#919BA2" points="35.4,88.2 36.3,88.2 35.7,84.7 34.8,84.7 				"/>
				<polygon opacity="0.5" fill="#919BA2" points="38.6,78.7 38.2,79.2 39.4,80.4 39.8,79.9 				"/>
				<polygon opacity="0.5" fill="#919BA2" points="34.8,83.8 35.7,83.8 36.1,82.7 35,82 34.4,82 34.3,82.1 35.2,82.7 				"/>
				<polygon opacity="0.25" fill="#919BA2" points="32.7,83.7 32.6,83.2 32.1,83.6 32.4,83.9 				"/>
				<path opacity="0.25" fill="#919BA2" d="M45.2,82.5l-5-1.6l-2,2.6l0.6,0.4l1.9-2.6l3.6,1.1c1.1,0.3,1.8,1.4,1.8,2.5v2.3H47V85
					C47,83.9,46.3,82.9,45.2,82.5z"/>
				<polygon opacity="0.25" fill="#919BA2" points="37.5,83.7 36.8,83.2 36.5,84.1 37,87.3 37.9,87.3 37.4,84.1 				"/>
			</g>
			<g opacity="0.12">
				<rect x="33.8" y="45.1" fill="#919BA2" width="16.7" height="13.2"/>
			</g>
			<g opacity="0.12">
				<rect x="41.7" y="45.1" fill="#919BA2" width="8.8" height="13.2"/>
			</g>
			<g opacity="0.12">
				<rect x="33.8" y="91.7" fill="#919BA2" width="16.7" height="15.8"/>
			</g>
			<g opacity="0.12">
				<rect x="21.5" y="91.7" fill="#919BA2" width="2.6" height="15.8"/>
			</g>
			<g opacity="0.12">
				<rect x="25.9" y="91.7" fill="#919BA2" width="4.4" height="15.8"/>
			</g>
			<g opacity="0.12">
				<rect x="21.5" y="45.1" fill="#919BA2" width="2.6" height="13.2"/>
			</g>
			<g opacity="0.12">
				<rect x="25.9" y="45.1" fill="#919BA2" width="4.4" height="13.2"/>
			</g>
			<g opacity="0.12">
				<polygon fill="#919BA2" points="18.9,91.7 18.9,93.5 41.7,93.5 41.7,104.9 18.9,104.9 18.9,107.5 50.5,107.5 50.5,91.7 				"/>
			</g>
			<g>
				<g>
					<g>
						<rect x="25" y="101.4" fill="#919BA2" width="1.8" height="0.9"/>
					</g>
				</g>
				<g>
					<g>
						<rect x="42.6" y="101.4" fill="#919BA2" width="1.8" height="0.9"/>
					</g>
				</g>
				<g>
					<g>
						<rect x="25" y="97.8" fill="#919BA2" width="1.8" height="0.9"/>
					</g>
				</g>
				<g>
					<g>
						<rect x="28.5" y="97.8" fill="#919BA2" width="1.8" height="0.9"/>
					</g>
				</g>
				<g>
					<g>
						<rect x="28.5" y="101.4" fill="#919BA2" width="1.8" height="0.9"/>
					</g>
				</g>
				<g>
					<g>
						<rect x="30.3" y="99.6" fill="#919BA2" width="1.8" height="0.9"/>
					</g>
				</g>
				<g>
					<g>
						<rect x="32.1" y="97.8" fill="#919BA2" width="1.8" height="0.9"/>
					</g>
				</g>
				<g>
					<g>
						<rect x="32.1" y="101.4" fill="#919BA2" width="1.8" height="0.9"/>
					</g>
				</g>
				<g>
					<g>
						<rect x="33.8" y="99.6" fill="#919BA2" width="1.8" height="0.9"/>
					</g>
				</g>
				<g>
					<g>
						<rect x="35.6" y="97.8" fill="#919BA2" width="1.8" height="0.9"/>
					</g>
				</g>
				<g>
					<g>
						<rect x="35.6" y="101.4" fill="#919BA2" width="1.8" height="0.9"/>
					</g>
				</g>
				<g>
					<g>
						<rect x="39.1" y="101.4" fill="#919BA2" width="1.8" height="0.9"/>
					</g>
				</g>
				<g>
					<g>
						<rect x="42.6" y="97.8" fill="#919BA2" width="1.8" height="0.9"/>
					</g>
				</g>
				<g>
					<g>
						<rect x="26.8" y="99.6" fill="#919BA2" width="1.8" height="0.9"/>
					</g>
				</g>
				<g>
					<g>
						<rect x="23.3" y="99.6" fill="#919BA2" width="1.8" height="0.9"/>
					</g>
				</g>
				<g>
					<g>
						<rect x="40.8" y="99.6" fill="#919BA2" width="1.8" height="0.9"/>
					</g>
				</g>
				<g>
					<g>
						<rect x="37.3" y="99.6" fill="#919BA2" width="1.8" height="0.9"/>
					</g>
				</g>
				<g>
					<g>
						<rect x="39.1" y="97.8" fill="#919BA2" width="1.8" height="0.9"/>
					</g>
				</g>
				<g>
					<g>
						<rect x="44.4" y="99.6" fill="#919BA2" width="1.8" height="0.9"/>
					</g>
				</g>
			</g>
			<path fill="#919BA2" d="M18,41.6v66.8h33.4V41.6H18z M19.8,59.2h29.9v31.6H19.8V59.2z M49.6,106.6H19.8V92.6h29.9V106.6z
				 M19.8,57.4V43.4h29.9v14.1H19.8z"/>
		</g>
		<g>
			<g>
				<g opacity="0.5">
					<path fill="#919BA2" d="M117.7,78.5c-0.2,0-0.4-0.2-0.4-0.4v-0.9c0-0.2,0.2-0.4,0.4-0.4s0.4,0.2,0.4,0.4v0.9
						C118.2,78.3,118,78.5,117.7,78.5z"/>
				</g>
				<g opacity="0.25">
					<polygon fill="#919BA2" points="120.8,75.4 121.3,78.1 118.2,81.2 118.2,76.8 					"/>
				</g>
				<path fill="#919BA2" d="M128.3,80.9l-5.4-1.7l-1.6-1.6l-0.4-1.5c1.6-1.7,2.5-4.7,2.5-7.7c0-4.9-2.3-7.3-6.2-7.3
					c-3.9,0-6.2,2.5-6.2,7.3c0,3,0.9,6,2.5,7.7l-0.3,1.5l-1.7,1.7l-5.3,1.7c-1.8,0.6-3.1,2.3-3.1,4.2v4h11.4h5.3h11.4v-4
					C131.4,83.1,130.1,81.4,128.3,80.9z M121.3,78.7l1.2,1.2l-2.2,2.8l-1.8-1.2L121.3,78.7z M115.9,82.7l1-0.7h0.6l1,0.7l-0.4,1.1
					h-2L115.9,82.7z M114.8,78.9l0.4-1.8c0.6,0.3,1.3,0.5,2.1,0.5s1.5-0.2,2.1-0.5l0.4,1.8l-2.2,2.2H117L114.8,78.9z M116.3,84.7h2
					l0.4,2.6h-2.9L116.3,84.7z M112.9,68.3c0-5.6,3.3-5.6,4.4-5.6c1.1,0,4.4,0,4.4,5.6c0,4.9-2.3,7.6-4.4,7.6
					C115.2,75.9,112.9,73.2,112.9,68.3z M113.3,78.7l2.8,2.8l-1.8,1.2l-2.2-2.9L113.3,78.7z M105,87.3V85c0-1.2,0.7-2.2,1.8-2.5
					l5-1.6l2.3,3l1.1-0.7l0.3,0.9l-0.5,3.2H105z M129.6,87.3h-10l-0.5-3.2l0.3-0.9l1.1,0.7l2.3-3l5,1.6c1.1,0.3,1.8,1.4,1.8,2.5
					V87.3z"/>
				<g>
					<polygon opacity="0.5" fill="#919BA2" points="115.7,88.2 116.3,84.7 118.3,84.7 118.9,88.2 					"/>
					<polygon opacity="0.5" fill="#919BA2" points="118.3,83.8 116.3,83.8 115.9,82.7 117,82 117.6,82 118.7,82.7 					"/>
				</g>
				<path opacity="0.5" fill="#919BA2" d="M120.8,68.3c0,4.6-2,7.2-4,7.6c0.1,0,0.3,0,0.4,0c2.1,0,4.4-2.7,4.4-7.6
					c0-5.6-3.3-5.6-4.4-5.6c-0.1,0-0.3,0-0.4,0C118.2,62.8,120.8,63.3,120.8,68.3z"/>
				<path opacity="0.25" fill="#919BA2" d="M118.2,81.2l1.6-2.2l-0.4-1.8c-0.3,0.1-0.5,0.2-0.8,0.3l0.3,1.5L118.2,81.2z"/>
				<polygon opacity="0.5" fill="#919BA2" points="118,88.2 118.9,88.2 118.3,84.7 117.4,84.7 				"/>
				<polygon opacity="0.5" fill="#919BA2" points="121.3,78.7 120.8,79.2 122.1,80.4 122.4,79.9 				"/>
				<polygon opacity="0.5" fill="#919BA2" points="117.4,83.8 118.3,83.8 118.7,82.7 117.6,82 117,82 116.9,82.1 117.8,82.7 				"/>
				<polygon opacity="0.25" fill="#919BA2" points="115.4,83.7 115.2,83.2 114.7,83.6 115,83.9 				"/>
				<path opacity="0.25" fill="#919BA2" d="M127.8,82.5l-5-1.6l-2,2.6l0.6,0.4l1.9-2.6l3.6,1.1c1.1,0.3,1.8,1.4,1.8,2.5v2.3h0.9V85
					C129.6,83.9,128.9,82.9,127.8,82.5z"/>
				<polygon opacity="0.25" fill="#919BA2" points="120.1,83.7 119.4,83.2 119.1,84.1 119.6,87.3 120.5,87.3 120,84.1 				"/>
			</g>
			<g opacity="0.12">
				<rect x="116.4" y="45.1" fill="#919BA2" width="16.7" height="13.2"/>
			</g>
			<g opacity="0.12">
				<rect x="124.3" y="45.1" fill="#919BA2" width="8.8" height="13.2"/>
			</g>
			<g opacity="0.12">
				<rect x="116.4" y="91.7" fill="#919BA2" width="16.7" height="15.8"/>
			</g>
			<g opacity="0.12">
				<rect x="104.1" y="91.7" fill="#919BA2" width="2.6" height="15.8"/>
			</g>
			<g opacity="0.12">
				<rect x="108.5" y="91.7" fill="#919BA2" width="4.4" height="15.8"/>
			</g>
			<g opacity="0.12">
				<rect x="104.1" y="45.1" fill="#919BA2" width="2.6" height="13.2"/>
			</g>
			<g opacity="0.12">
				<rect x="108.5" y="45.1" fill="#919BA2" width="4.4" height="13.2"/>
			</g>
			<g opacity="0.12">
				<polygon fill="#919BA2" points="101.5,91.7 101.5,93.5 124.3,93.5 124.3,104.9 101.5,104.9 101.5,107.5 133.1,107.5 133.1,91.7 
									"/>
			</g>
			<g>
				<g>
					<g>
						<rect x="107.6" y="101.4" fill="#919BA2" width="1.8" height="0.9"/>
					</g>
				</g>
				<g>
					<g>
						<rect x="125.2" y="101.4" fill="#919BA2" width="1.8" height="0.9"/>
					</g>
				</g>
				<g>
					<g>
						<rect x="107.6" y="97.8" fill="#919BA2" width="1.8" height="0.9"/>
					</g>
				</g>
				<g>
					<g>
						<rect x="111.2" y="97.8" fill="#919BA2" width="1.8" height="0.9"/>
					</g>
				</g>
				<g>
					<g>
						<rect x="111.2" y="101.4" fill="#919BA2" width="1.8" height="0.9"/>
					</g>
				</g>
				<g>
					<g>
						<rect x="112.9" y="99.6" fill="#919BA2" width="1.8" height="0.9"/>
					</g>
				</g>
				<g>
					<g>
						<rect x="114.7" y="97.8" fill="#919BA2" width="1.8" height="0.9"/>
					</g>
				</g>
				<g>
					<g>
						<rect x="114.7" y="101.4" fill="#919BA2" width="1.8" height="0.9"/>
					</g>
				</g>
				<g>
					<g>
						<rect x="116.4" y="99.6" fill="#919BA2" width="1.8" height="0.9"/>
					</g>
				</g>
				<g>
					<g>
						<rect x="118.2" y="97.8" fill="#919BA2" width="1.8" height="0.9"/>
					</g>
				</g>
				<g>
					<g>
						<rect x="118.2" y="101.4" fill="#919BA2" width="1.8" height="0.9"/>
					</g>
				</g>
				<g>
					<g>
						<rect x="121.7" y="101.4" fill="#919BA2" width="1.8" height="0.9"/>
					</g>
				</g>
				<g>
					<g>
						<rect x="125.2" y="97.8" fill="#919BA2" width="1.8" height="0.9"/>
					</g>
				</g>
				<g>
					<g>
						<rect x="109.4" y="99.6" fill="#919BA2" width="1.8" height="0.9"/>
					</g>
				</g>
				<g>
					<g>
						<rect x="105.9" y="99.6" fill="#919BA2" width="1.8" height="0.9"/>
					</g>
				</g>
				<g>
					<g>
						<rect x="123.5" y="99.6" fill="#919BA2" width="1.8" height="0.9"/>
					</g>
				</g>
				<g>
					<g>
						<rect x="119.9" y="99.6" fill="#919BA2" width="1.8" height="0.9"/>
					</g>
				</g>
				<g>
					<g>
						<rect x="121.7" y="97.8" fill="#919BA2" width="1.8" height="0.9"/>
					</g>
				</g>
				<g>
					<g>
						<rect x="127" y="99.6" fill="#919BA2" width="1.8" height="0.9"/>
					</g>
				</g>
			</g>
			<path fill="#919BA2" d="M100.6,41.6v66.8H134V41.6H100.6z M102.4,59.2h29.9v31.6h-29.9V59.2z M132.2,106.6h-29.9V92.6h29.9V106.6
				z M102.4,57.4V43.4h29.9v14.1H102.4z"/>
		</g>
	</g>
</g>
</svg>
