<?xml version="1.0" encoding="utf-8"?>
<!-- Generator: Adobe Illustrator 18.1.1, SVG Export Plug-In . SVG Version: 6.00 Build 0)  -->
<!DOCTYPE svg PUBLIC "-//W3C//DTD SVG 1.1//EN" "http://www.w3.org/Graphics/SVG/1.1/DTD/svg11.dtd">
<svg version="1.1" xmlns="http://www.w3.org/2000/svg" xmlns:xlink="http://www.w3.org/1999/xlink" x="0px" y="0px"
	 viewBox="0 0 150 150" enable-background="new 0 0 150 150" xml:space="preserve">
<g id="guides">
</g>
<g id="artowrk">
	<g>
		<g>
			<g>
				<g>
					<polygon fill="#919BA2" points="75.2,129 68.8,122.6 71.4,120 75.2,123.8 79.1,120 81.7,122.6 					"/>
				</g>
			</g>
		</g>
		<g>
			<g>
				<g>
					<polygon fill="#919BA2" points="112.5,91.7 106.1,98.1 103.5,95.6 107.4,91.7 103.5,87.8 106.1,85.3 					"/>
				</g>
			</g>
		</g>
		<g>
			<g>
				<g>
					<polygon fill="#919BA2" points="37.9,91.7 44.4,85.3 46.9,87.9 43.1,91.7 46.9,95.6 44.4,98.2 					"/>
				</g>
			</g>
		</g>
		<g>
			<path fill="#919BA2" d="M104.8,77.6H89.4v-3.9h15.4c7.1,0,12.9-5.8,12.9-12.9c0-7-5.5-12.6-12.5-12.8l-1.7,0l-0.2-1.6
				c-1.5-12.2-11.9-21.5-24.2-21.5c-9.6,0-18.3,5.7-22.3,14.4l-1,2.2L53.9,40c-0.9-0.7-2-1-3.1-1c-2.8,0-5.1,2.3-5.1,5.1
				c0,0.5,0.1,1,0.2,1.5l0.7,2.2l-2.3,0.3c-6.5,0.7-11.4,6.2-11.4,12.8c0,7.1,5.8,12.9,12.9,12.9v3.9c-9.2,0-16.7-7.5-16.7-16.7
				c0-7.8,5.4-14.5,12.9-16.3c0-0.1,0-0.3,0-0.4c0-5,4-9,9-9c1.2,0,2.3,0.2,3.4,0.7C59.2,26.7,68.7,21,79.1,21
				c13.7,0,25.4,9.9,27.8,23.3c8.3,1,14.6,8,14.6,16.6C121.5,70.1,114,77.6,104.8,77.6z"/>
		</g>
		<g>
			<rect x="45.7" y="73.7" fill="#919BA2" width="15.4" height="3.9"/>
		</g>
		<g opacity="0.37">
			<g>
				<path fill="#919BA2" d="M54.7,73.7h-9c-7.1,0-12.9-5.8-12.9-12.9c0-1.1,0.9-1.9,1.9-1.9s1.9,0.9,1.9,1.9c0,5,4,9,9,9h9
					c1.1,0,1.9,0.9,1.9,1.9C56.6,72.8,55.7,73.7,54.7,73.7z"/>
			</g>
		</g>
		<g opacity="0.37">
			<path fill="#919BA2" d="M104.8,73.7c-5,0-9.6-3-11.7-7.6c-0.4-1,0-2.1,1-2.6c1-0.4,2.1,0,2.6,1c1.5,3.2,4.7,5.3,8.2,5.3
				c5,0,9-4,9-9s-4-9-9-9c-0.9,0-1.8,0.1-2.7,0.4c-0.6,0.2-1.3,0.1-1.8-0.3c-0.5-0.4-0.8-1-0.7-1.6l0-0.4c0-0.2,0-0.4,0-0.6
				c0-11.3-9.2-20.6-20.6-20.6c-1.1,0-1.9-0.9-1.9-1.9s0.9-1.9,1.9-1.9c13.1,0,23.8,10.3,24.4,23.2c0.4,0,0.9-0.1,1.3-0.1
				c7.1,0,12.9,5.8,12.9,12.9S111.9,73.7,104.8,73.7z"/>
		</g>
		<g>
			<polygon fill="#919BA2" points="97.5,117 79.1,98.7 79.1,64.7 81.7,64.7 81.7,97.6 99.3,115.2 			"/>
		</g>
		<g>
			<rect x="74" y="59.6" fill="#919BA2" width="2.6" height="66.9"/>
		</g>
		<g>
			<polygon fill="#919BA2" points="111.2,93 84.2,93 84.2,69.8 86.8,69.8 86.8,90.4 111.2,90.4 			"/>
		</g>
		<g>
			<polygon fill="#919BA2" points="66.2,93 39.2,93 39.2,90.4 63.7,90.4 63.7,69.8 66.2,69.8 			"/>
		</g>
		<g>
			<g>
				<g>
					<polygon fill="#919BA2" points="99.7,117.4 89.4,117.4 89.4,113.6 95.8,113.6 95.8,107.1 99.7,107.1 					"/>
				</g>
			</g>
		</g>
		<g>
			<polygon fill="#919BA2" points="53,117 51.2,115.2 68.8,97.6 68.8,64.7 71.4,64.7 71.4,98.7 			"/>
		</g>
		<g>
			<g>
				<g>
					<polygon fill="#919BA2" points="50.8,117.4 61.1,117.4 61.1,113.6 54.7,113.6 54.7,107.1 50.8,107.1 					"/>
				</g>
			</g>
		</g>
	</g>
</g>
</svg>
