<?xml version="1.0" encoding="utf-8"?>
<!-- Generator: Adobe Illustrator 18.1.1, SVG Export Plug-In . SVG Version: 6.00 Build 0)  -->
<!DOCTYPE svg PUBLIC "-//W3C//DTD SVG 1.1//EN" "http://www.w3.org/Graphics/SVG/1.1/DTD/svg11.dtd">
<svg version="1.1" xmlns="http://www.w3.org/2000/svg" xmlns:xlink="http://www.w3.org/1999/xlink" x="0px" y="0px"
	 viewBox="0 0 150 150" enable-background="new 0 0 150 150" xml:space="preserve">
<g id="guides">
</g>
<g id="artowrk">
	<g>
		<g>
			<rect x="20" y="65.6" fill="#919BA2" width="37.4" height="3.1"/>
		</g>
	</g>
	<g>
		<g>
			<polygon fill="#919BA2" points="48,59.4 48,56.2 62.5,56.2 59.4,59.4 			"/>
		</g>
	</g>
	<g>
		<g>
			<polygon fill="#919BA2" points="44.9,50 44.9,46.9 78.1,46.9 72.9,50 			"/>
		</g>
	</g>
	<g>
		<g>
			<rect x="31.4" y="56.2" fill="#919BA2" width="13.5" height="3.1"/>
		</g>
	</g>
	<g>
		<g>
			<polygon fill="#919BA2" points="43.9,78 43.9,74.9 59.4,74.9 61.5,78 			"/>
		</g>
	</g>
	<g>
		<g>
			<rect x="34.5" y="74.9" fill="#919BA2" width="6.2" height="3.1"/>
		</g>
	</g>
	<g>
		<g>
			<polygon fill="#919BA2" points="49.1,87.4 49.1,84.3 66.7,84.3 68.8,87.4 			"/>
		</g>
	</g>
	<g opacity="0.25">
		<path fill="#919BA2" d="M108.2,67.7h14.5c2.9,0,5.2,2.3,5.2,5.2v0c0,2.9-2.3,5.2-5.2,5.2h0v-3.2c0-1.1-0.9-2-1.9-2.1l-13.1-0.8
			c-0.9-0.1-1.7-0.7-1.9-1.7L102,51.1L108.2,67.7z"/>
	</g>
	<g>
		<path fill="#919BA2" d="M109.2,28.2c4.6,0,8.3,3.7,8.3,8.3s-3.7,10.4-8.3,10.4c-0.9,0-1.8-0.2-2.6-0.6l-4.7,4.8l5,18
			c0.1,0.4,0.5,0.7,0.9,0.8l17,0.9c1.1,0.1,2,1,2,2.1v0.1c0,1.7-1.4,3.1-3.1,3.1h-20.6c-1.3,0-2.5-0.9-3-2.1l-4.5-13.4L79,70.3
			l11.8,23.6c1.3,2.8-0.7,5.9-3.7,5.9h-5.9H51.1c-1.7,0-3.1-1.4-3.1-3.1v-0.2c0-1.6,1.3-3,2.9-3.1l27.2-1.9L65.3,73
			c-3.1-4.5-1.7-10.8,3.2-13.5l21-11.6l-11.8-8.8c-0.4-0.3-0.8-0.4-1.2-0.4c-0.1,0-0.2,0-0.3,0l-15.6,2.5c-0.2,0-0.3,0-0.5,0
			c-1.5,0-2.9-1.1-3.3-2.6l0-0.1c-0.3-1.1,0.4-2.3,1.6-2.5l19.1-4.2c0.4-0.1,0.9-0.1,1.3-0.1c1.3,0,2.5,0.4,3.6,1.1l15.4,10.9
			l4.2-2.1l0.3-0.1c-0.8-1.6-1.3-3.4-1.3-5.1C100.9,31.9,104.7,28.2,109.2,28.2 M109.2,25.1c-6.3,0-11.4,5.1-11.4,11.4
			c0,1.1,0.2,2.3,0.5,3.5l-0.2,0.1l-13.9-9.8c-1.6-1.1-3.4-1.7-5.4-1.7c-0.7,0-1.3,0.1-2,0.2L57.7,33c-1.4,0.3-2.6,1.1-3.3,2.3
			c-0.7,1.2-1,2.6-0.6,4l0,0.1c0.7,2.9,3.4,4.9,6.3,4.9c0.3,0,0.7,0,1-0.1l15.1-2.4l7.5,5.7L67,56.8c-3.1,1.7-5.3,4.6-6.1,8.1
			c-0.8,3.4-0.1,7,1.9,9.9l9.7,14l-21.7,1.5c-3.3,0.2-5.8,3-5.8,6.2v0.2c0,3.4,2.8,6.2,6.2,6.2h30.1h5.9c2.5,0,4.8-1.3,6.1-3.4
			c1.3-2.1,1.5-4.7,0.4-7l0,0l0,0l-10.5-21L94,65l3.3,9.8c0.8,2.5,3.2,4.3,5.9,4.3h20.6c3.4,0,6.2-2.8,6.2-6.2v-0.1
			c0-2.8-2.2-5-4.9-5.2l-15.5-0.8L105.5,52l2.1-2.1c0.6,0.1,1.1,0.2,1.7,0.2c6.4,0,11.4-7.3,11.4-13.5
			C120.7,30.2,115.5,25.1,109.2,25.1L109.2,25.1z"/>
	</g>
	<g>
		<path fill="#919BA2" d="M96.8,67.7c-0.4,0-0.8-0.3-1-0.7l-3.5-10.6c-0.5-1.5-0.1-3.1,1-4.2l1.8-1.8c0.4-0.4,1.1-0.4,1.5,0
			c0.4,0.4,0.4,1.1,0,1.5l-1.8,1.8c-0.6,0.6-0.8,1.4-0.5,2.1l3.5,10.6c0.2,0.5-0.1,1.1-0.7,1.3C97,67.6,96.9,67.7,96.8,67.7z"/>
	</g>
	<g>
		<path fill="#919BA2" d="M91.9,96.9L91.9,96.9c-0.2,2-2.1,4-3.6,5.5l-23.1,23c-0.9,0.9-2.4,1.2-3.6,0.6l-0.6-0.3
			c-1.8-0.9-2.3-3.3-0.9-4.9L76,103.1l1.4-1.7h-4.3l-0.2,0.7l-14.6,17.2c-2.6,2.8-1.7,7.3,1.7,9h0c2.2,1.1,4.8,0.7,6.5-1l23.9-22.7
			c2.1-2,3.1-3.5,3.3-6.4c0.1-1.5-0.6-4-2-4.4c-0.2-0.1-0.4-0.1-0.6-0.1C91.4,94.8,92.3,95.9,91.9,96.9z"/>
	</g>
	<g opacity="0.25">
		<g>
			<path fill="#919BA2" d="M58.4,127.3l1-2.6H60c2.3,0,4.5-0.9,6-2.6l14.6-15.4c0.6-0.7,0.2-1.8-0.8-1.8h-8l2.1-2.6h15.6l-25.9,24.9
				H58.4z"/>
		</g>
	</g>
	<g opacity="0.25">
		<path fill="#919BA2" d="M95.8,62.5l-14.5,9.3l12.5,22.8l-2.7,6.4l-38.5-0.8l33.8-4c0.7-0.1,1.1-0.8,0.8-1.5L75.4,72.7
			c-0.7-1.4-0.2-3.2,1.2-4l18.3-11L95.8,62.5z"/>
	</g>
	<g opacity="0.25">
		<g>
			<path fill="#919BA2" d="M112.4,36.5c0,4.6-5.7,9.8-5.7,9.8c0.8,0.4,1.7,0.6,2.6,0.6c4.6,0,8.3-5.8,8.3-10.4s-3.7-8.3-8.3-8.3
				c-0.9,0-1.8,0.2-2.6,0.4C110,29.7,112.4,32.9,112.4,36.5z"/>
		</g>
	</g>
</g>
</svg>
